<svg xmlns="http://www.w3.org/2000/svg" xmlns:xlink="http://www.w3.org/1999/xlink" width="1920" height="325" viewBox="0 0 1920 325">
  <defs>
    <clipPath id="clip-path">
      <rect id="Rectangle_470" data-name="Rectangle 470" width="1920" height="325" transform="translate(0 1920)" fill="#fff"/>
    </clipPath>
  </defs>
  <g id="Mask_Group_2" data-name="Mask Group 2" transform="translate(0 -1920)" clip-path="url(#clip-path)">
    <g id="footer-bg" transform="translate(0 -248.294)">
      <path id="Path_1" data-name="Path 1" d="M0,0S152.055-73.72,500.174-70.61c289.92,0,553.526,103.653,843.12,103.653C1613.6,32.354,1920-52.992,1920-52.992V254H0Z" transform="translate(0 2239)" fill="#7bba93"/>
      <path id="Path_2" data-name="Path 2" d="M-3,2492V2326.232s7.528-28.362,189.577-11.445,267.609,119.755,519.148,101.3,427.409-108.748,994.916-89.859c175.313,9.588,219.139,60.818,219.139,60.818V2492Z" transform="translate(3 1)" fill="#39565c" opacity="0.39"/>
      <path id="Path_3" data-name="Path 3" d="M-3,2278.06s206.357,15.471,316.24,0,232.673-59.359,402.578-32.58,516.326,120.6,679.725,124.281,524.221-91.7,524.221-91.7v127.516s84.1,45.254-289.653,15.528-531.02,9.631-775.744-15.528-352.9-109.814-599-35.816S-3,2405.576-3,2405.576Z" transform="translate(3 1)" fill="#396d6f" opacity="0.504"/>
    </g>
  </g>
</svg>
