<?xml version="1.0" encoding="utf-8"?>
<!-- Generator: Adobe Illustrator 26.0.2, SVG Export Plug-In . SVG Version: 6.00 Build 0)  -->
<svg version="1.1" id="Layer_1" xmlns="http://www.w3.org/2000/svg" xmlns:xlink="http://www.w3.org/1999/xlink" x="0px" y="0px"
	 viewBox="0 0 217.8 109.2" style="enable-background:new 0 0 217.8 109.2;" xml:space="preserve">
<style type="text/css">
	.st0{enable-background:new    ;}
	.st1{fill:#FFFFFF;}
	.st2{fill:#7BBA93;}
	.st3{fill:#AFD0A1;}
	.st4{fill:#679378;}
	.st5{fill:none;stroke:#7BBA93;stroke-width:3;stroke-linecap:round;}
</style>
<g id="Group_1" transform="translate(-868.314 -43.798)">
	<g class="st0">
		<path class="st1" d="M873,143.4c-0.3,0-0.6-0.1-0.8-0.3c-0.2-0.2-0.4-0.5-0.4-0.8c0-0.3,0.1-0.6,0.4-0.9c0.2-0.2,0.5-0.3,0.8-0.3
			c0.2,0,0.4,0,0.7,0.1c0.2,0,0.5,0,0.8,0.1h0.1c0.2,0,0.2-0.1,0.2-0.3v-20.7c0-0.3-0.1-0.4-0.4-0.3l-1.2,0.2c-0.4,0-0.7-0.1-1-0.3
			c-0.3-0.3-0.4-0.6-0.4-0.9c0-0.4,0.1-0.7,0.4-0.9c0.3-0.2,0.6-0.3,1-0.3c0.3,0,0.6,0.1,0.9,0.1c0.3,0,0.7,0.1,1,0.1
			c0.7,0,1.2,0.2,1.8,0.5c0.5,0.3,1,0.7,1.3,1.2l12.5,19.5c0.1,0.1,0.1,0.2,0.2,0.2c0.1,0,0.2-0.1,0.2-0.3V120
			c0-0.2-0.1-0.3-0.3-0.3l-2.2,0.2c-0.3,0-0.6-0.1-0.9-0.3s-0.4-0.5-0.4-0.9c0-0.4,0.1-0.6,0.4-0.9s0.5-0.3,0.9-0.3
			c0.7,0.1,1.3,0.1,1.8,0.2c0.5,0,1,0.1,1.5,0.1s1,0,1.5-0.1c0.5,0,1.1-0.1,1.8-0.2c0.3,0,0.6,0.1,0.8,0.3c0.2,0.2,0.4,0.5,0.4,0.9
			s-0.1,0.6-0.4,0.8c-0.2,0.2-0.5,0.3-0.8,0.3c-0.2,0-0.4-0.1-0.7-0.1s-0.5,0-0.8-0.1h-0.1c-0.2,0-0.2,0.1-0.2,0.3v21.7
			c0,0.4-0.1,0.7-0.4,1c-0.3,0.3-0.6,0.4-1,0.4c-0.6,0-1.1-0.3-1.5-0.8l-13-20c-0.1-0.1-0.1-0.2-0.2-0.2c-0.1,0-0.2,0.1-0.2,0.3V141
			c0,0.2,0.1,0.3,0.3,0.3l2.2-0.2c0.3,0,0.6,0,0.9,0.3c0.2,0.2,0.4,0.5,0.4,0.9c0,0.4-0.1,0.6-0.4,0.9c-0.2,0.2-0.5,0.3-0.9,0.3
			c-0.7-0.1-1.3-0.1-1.8-0.2c-0.5,0-1-0.1-1.5-0.1c-0.4,0-0.9,0-1.4,0.1S873.7,143.3,873,143.4z"/>
		<path class="st1" d="M904.7,143.4c-1.5,0-2.8-0.4-3.7-1.3c-1-0.9-1.5-2-1.5-3.3c0-1.7,0.6-3.1,1.7-4c1.2-0.9,2.6-1.4,4.4-1.4
			c1.5,0,3.2,0.4,5,1.1c0,0,0.1,0,0.2,0c0.1,0,0.2-0.1,0.2-0.2v-1.8c0-1.6-0.4-2.9-1.3-3.7c-0.9-0.9-1.9-1.3-3.2-1.3
			c-0.9,0-1.8,0.2-2.7,0.6c-0.2,0.1-0.2,0.2-0.1,0.4c0.1,0.2,0.1,0.4,0.1,0.7c0,0.5-0.2,0.9-0.5,1.2c-0.3,0.3-0.8,0.5-1.3,0.5
			c-0.6,0-1-0.2-1.3-0.6c-0.3-0.4-0.5-0.8-0.5-1.3c0-0.5,0.2-1,0.6-1.5c0.6-0.7,1.4-1.2,2.3-1.6c0.9-0.4,1.9-0.6,3-0.6
			c2.3,0,4.1,0.6,5.3,1.9c1.2,1.2,1.9,3,1.9,5.3v8.6c0,0.2,0.1,0.3,0.3,0.3c0.3,0,0.6-0.1,0.9-0.2c0.3-0.1,0.5-0.1,0.8-0.1
			c0.3,0,0.6,0.1,0.8,0.3s0.3,0.5,0.3,0.8c0,0.4-0.1,0.6-0.4,0.9c-0.3,0.2-0.5,0.3-0.9,0.3c-0.3-0.1-0.6-0.1-1-0.2s-0.7-0.1-1.1-0.1
			c-0.5,0-1-0.2-1.3-0.6c-0.4-0.4-0.5-0.8-0.5-1.3c0,0,0,0,0,0c-0.1,0-0.2,0.1-0.3,0.2c-0.8,0.7-1.7,1.2-2.6,1.5
			C907.2,143.2,906,143.4,904.7,143.4z M904.7,141.3c1.4,0,2.5-0.3,3.5-0.7c0.9-0.4,1.9-1.1,2.8-2c0.1-0.1,0.1-0.2,0.1-0.4v-1.3
			c0-0.2-0.1-0.3-0.2-0.4c-0.5-0.3-1.2-0.6-2-0.8c-0.8-0.3-1.8-0.4-3.1-0.4c-1.3,0-2.3,0.3-3.1,0.9c-0.8,0.6-1.1,1.4-1.1,2.5
			c0,0.7,0.3,1.4,0.9,1.8C903.1,141,903.8,141.3,904.7,141.3z"/>
		<path class="st1" d="M926.1,143.4c-1.2,0-2.2-0.4-3-1.3c-0.8-0.8-1.2-1.9-1.2-3.1v-11.2c0-0.2-0.1-0.3-0.3-0.3h-2.3
			c-0.3,0-0.5-0.1-0.7-0.3c-0.2-0.2-0.3-0.4-0.3-0.7c0-0.3,0.1-0.5,0.3-0.7c0.2-0.2,0.4-0.3,0.7-0.3h2.3c0.2,0,0.3-0.1,0.3-0.3v-6.2
			c0-0.3,0.1-0.6,0.3-0.8s0.5-0.3,0.8-0.3s0.6,0.1,0.8,0.3s0.3,0.5,0.3,0.8v6.2c0,0.2,0.1,0.3,0.3,0.3h4.4c0.3,0,0.5,0.1,0.7,0.3
			c0.2,0.2,0.3,0.4,0.3,0.7s-0.1,0.5-0.3,0.7s-0.4,0.3-0.7,0.3h-4.4c-0.2,0-0.3,0.1-0.3,0.3v11.2c0,0.1,0,0.3,0.1,0.6
			c0.1,0.3,0.2,0.7,0.5,1c0.3,0.3,0.7,0.5,1.4,0.5c0.7,0,1.2-0.2,1.5-0.6c0.3-0.4,0.6-1,0.7-1.9c0.1-0.7,0.4-1,1-1
			c0.4,0,0.6,0.1,0.9,0.3c0.2,0.2,0.3,0.5,0.3,0.8C930.2,141.9,928.7,143.4,926.1,143.4z"/>
		<path class="st1" d="M942.4,143.4c-1.6,0-3-0.4-4.1-1.2c-1.4-1-2.2-2.5-2.2-4.4v-10.3c0-0.2-0.1-0.3-0.3-0.3l-1.6,0.1
			c-0.3,0-0.6-0.1-0.8-0.3s-0.3-0.4-0.3-0.8c0-0.3,0.1-0.6,0.3-0.8s0.5-0.3,0.7-0.2c0.6,0,1,0.1,1.3,0.1c0.3,0,0.6,0,1,0.1
			c0.5,0,1,0.2,1.3,0.5c0.4,0.4,0.5,0.8,0.5,1.3v10.4c0,0.8,0.2,1.5,0.5,1.9c0.4,0.5,0.8,0.8,1.3,1c0.5,0.2,1,0.3,1.4,0.4
			c0.4,0.1,0.7,0.1,0.9,0.1c1.1,0,2.2-0.4,3.3-1.1c1-0.7,2-1.7,2.8-3c0.1-0.1,0.1-0.3,0.1-0.4v-9.2c0-0.2-0.1-0.3-0.3-0.3l-1.6,0.1
			c-0.3,0-0.6-0.1-0.8-0.3s-0.3-0.4-0.3-0.8c0-0.3,0.1-0.6,0.3-0.8s0.5-0.3,0.7-0.2c0.6,0,1,0.1,1.3,0.1c0.3,0,0.6,0,1,0.1
			c0.5,0,1,0.2,1.3,0.5c0.4,0.4,0.5,0.8,0.5,1.3v13.8c0,0.2,0.1,0.3,0.4,0.3c0.3,0,0.5-0.1,0.8-0.1c0.3,0,0.5-0.1,0.7-0.1
			c0.3,0,0.6,0,0.8,0.3c0.2,0.2,0.3,0.5,0.3,0.8c0,0.3-0.1,0.6-0.3,0.8c-0.2,0.2-0.5,0.3-0.8,0.3c-0.3,0-0.7-0.1-1-0.2
			c-0.4-0.1-0.7-0.1-1.1-0.1c-0.5,0-1-0.2-1.3-0.6c-0.4-0.4-0.6-0.8-0.6-1.3v-1.1c0-0.1,0-0.2-0.1-0.3c-0.1,0-0.2,0-0.3,0.1
			C946.5,142.3,944.6,143.4,942.4,143.4z"/>
		<path class="st1" d="M958.1,143.4c-0.3,0-0.5-0.1-0.8-0.3c-0.2-0.2-0.3-0.4-0.3-0.8c0-0.3,0.1-0.6,0.3-0.8
			c0.2-0.2,0.5-0.3,0.8-0.2l1.6,0.1h0.1c0.2,0,0.2-0.1,0.2-0.3v-13.4c0-0.2-0.1-0.3-0.3-0.3c-0.3,0-0.6,0-0.8,0.1
			c-0.3,0-0.5,0-0.8,0.1c-0.3,0-0.6-0.1-0.9-0.3c-0.2-0.2-0.4-0.5-0.4-0.9c0-0.3,0.1-0.6,0.4-0.8s0.5-0.3,0.8-0.3
			c0.5,0,0.9,0.1,1.1,0.1c0.3,0,0.5,0,0.8,0c0.3,0,0.7,0,1.1,0c0.3,0,0.6,0.1,0.8,0.3s0.3,0.5,0.3,0.8v2.8c0,0.2,0,0.3,0.1,0.3
			s0.2-0.1,0.2-0.2c1.5-2.6,3.6-4,6.2-4.3c0.1,0,0.3,0,0.4-0.1s0.3,0,0.4,0c0.8,0,1.4,0.2,1.9,0.5c0.5,0.4,0.7,0.9,0.7,1.6
			c0,0.5-0.2,0.9-0.5,1.2c-0.3,0.3-0.8,0.5-1.3,0.5c-0.4,0-0.8-0.1-1.1-0.4c-0.3-0.2-0.4-0.5-0.5-0.8c-0.1-0.2-0.2-0.3-0.4-0.3
			c-0.9,0-1.8,0.3-2.6,1c-0.8,0.6-1.5,1.5-2.1,2.4c-0.6,1-1.1,2-1.5,3.1c0,0.1-0.1,0.2-0.1,0.4v6.8c0,0.2,0.1,0.3,0.3,0.3l1.7-0.1
			c0.3,0,0.6,0,0.8,0.2c0.2,0.2,0.3,0.5,0.3,0.8c0,0.3-0.1,0.6-0.3,0.8c-0.2,0.2-0.5,0.3-0.8,0.3c-0.7-0.1-1.3-0.1-1.8-0.2
			c-0.5,0-0.9-0.1-1.3-0.1c-0.5,0-1,0-1.4,0.1S958.8,143.3,958.1,143.4z"/>
		<path class="st1" d="M979.7,143.4c-1.5,0-2.8-0.4-3.7-1.3c-1-0.9-1.5-2-1.5-3.3c0-1.7,0.6-3.1,1.7-4c1.2-0.9,2.6-1.4,4.4-1.4
			c1.5,0,3.2,0.4,5,1.1c0,0,0.1,0,0.2,0c0.1,0,0.2-0.1,0.2-0.2v-1.8c0-1.6-0.4-2.9-1.3-3.7c-0.9-0.9-1.9-1.3-3.2-1.3
			c-0.9,0-1.8,0.2-2.7,0.6c-0.2,0.1-0.2,0.2-0.1,0.4c0.1,0.2,0.1,0.4,0.1,0.7c0,0.5-0.2,0.9-0.5,1.2c-0.3,0.3-0.8,0.5-1.3,0.5
			c-0.6,0-1-0.2-1.3-0.6c-0.3-0.4-0.5-0.8-0.5-1.3c0-0.5,0.2-1,0.6-1.5c0.6-0.7,1.4-1.2,2.3-1.6c0.9-0.4,1.9-0.6,3-0.6
			c2.3,0,4.1,0.6,5.3,1.9c1.2,1.2,1.9,3,1.9,5.3v8.6c0,0.2,0.1,0.3,0.3,0.3c0.3,0,0.6-0.1,0.9-0.2s0.5-0.1,0.8-0.1
			c0.3,0,0.6,0.1,0.8,0.3s0.3,0.5,0.3,0.8c0,0.4-0.1,0.6-0.4,0.9c-0.3,0.2-0.5,0.3-0.9,0.3c-0.3-0.1-0.6-0.1-1-0.2
			c-0.4,0-0.7-0.1-1.1-0.1c-0.5,0-1-0.2-1.3-0.6c-0.4-0.4-0.5-0.8-0.5-1.3c0,0,0,0,0,0c-0.1,0-0.2,0.1-0.3,0.2
			c-0.8,0.7-1.7,1.2-2.6,1.5C982.1,143.2,981,143.4,979.7,143.4z M979.7,141.3c1.4,0,2.5-0.3,3.5-0.7c0.9-0.4,1.9-1.1,2.8-2
			c0.1-0.1,0.1-0.2,0.1-0.4v-1.3c0-0.2-0.1-0.3-0.2-0.4c-0.5-0.3-1.2-0.6-2-0.8c-0.8-0.3-1.8-0.4-3.1-0.4c-1.3,0-2.3,0.3-3.1,0.9
			c-0.8,0.6-1.1,1.4-1.1,2.5c0,0.7,0.3,1.4,0.9,1.8C978,141,978.8,141.3,979.7,141.3z"/>
		<path class="st1" d="M994.9,143.4c-0.3,0-0.5-0.1-0.8-0.3c-0.2-0.2-0.3-0.4-0.3-0.8c0-0.3,0.1-0.6,0.3-0.8
			c0.2-0.2,0.5-0.3,0.8-0.2l1.6,0.1h0.1c0.2,0,0.2-0.1,0.2-0.3v-21.6c0-0.2-0.1-0.3-0.3-0.3l-1.6,0.1c-0.3,0-0.6-0.1-0.8-0.2
			s-0.3-0.4-0.3-0.7c0-0.3,0.1-0.6,0.3-0.8s0.5-0.3,0.8-0.2c0.3,0,0.7,0.1,1.1,0.1c0.4,0,0.8,0.1,1.2,0.1c0.5,0,1,0.2,1.3,0.6
			c0.4,0.4,0.5,0.8,0.5,1.3v21.7c0,0.2,0.1,0.3,0.3,0.3l1.6-0.1c0.3,0,0.6,0,0.8,0.2c0.2,0.2,0.3,0.5,0.3,0.8c0,0.3-0.1,0.6-0.3,0.8
			c-0.2,0.2-0.5,0.3-0.8,0.3c-0.7-0.1-1.3-0.1-1.8-0.2s-0.9-0.1-1.3-0.1c-0.5,0-1,0-1.4,0.1S995.6,143.3,994.9,143.4z"/>
		<path class="st1" d="M1015.6,143.4c-0.4,0-0.7-0.1-1-0.3c-0.3-0.3-0.4-0.6-0.4-0.9c0-0.3,0.1-0.7,0.4-0.9c0.2-0.3,0.5-0.4,0.9-0.4
			c0.2,0,0.5,0,0.7,0.1s0.5,0.1,0.7,0.1h0.1c0.2,0,0.2-0.1,0.2-0.3v-20.6c0-0.2-0.1-0.3-0.2-0.3c-0.3,0-0.5,0-0.8,0
			s-0.5,0.1-0.7,0.1c-0.3,0-0.6-0.1-0.9-0.3c-0.2-0.2-0.4-0.5-0.4-0.9c0-0.4,0.1-0.6,0.4-0.9c0.2-0.2,0.5-0.3,0.9-0.3
			c0.7,0.1,1.3,0.1,1.8,0.2c0.5,0,1,0.1,1.5,0.1c0.5,0,1,0,1.5-0.1c0.5,0,1.1-0.1,1.8-0.2c0.3,0,0.6,0,0.8,0.3
			c0.2,0.2,0.3,0.5,0.3,0.9c0,0.3-0.1,0.6-0.3,0.9c-0.2,0.2-0.5,0.3-0.8,0.3l-2.1-0.2c-0.2,0-0.3,0.1-0.3,0.3v20.5
			c0,0.2,0.1,0.3,0.3,0.3h9.4c0.2,0,0.3-0.1,0.3-0.3c0-0.5-0.1-1-0.1-1.5c0-0.5-0.1-1-0.1-1.3c0-0.3,0.1-0.6,0.4-0.8
			c0.2-0.2,0.5-0.3,0.9-0.3c0.4,0,0.7,0.1,0.9,0.4c0.3,0.3,0.4,0.6,0.3,0.9c0,0.5-0.1,1.1-0.1,1.7c0,0.6-0.1,1.2-0.1,1.8
			c0,0.5-0.2,1-0.6,1.3c-0.4,0.4-0.8,0.6-1.3,0.6H1019c-0.6,0-1.2,0.1-1.8,0.1C1016.6,143.3,1016.1,143.3,1015.6,143.4z"/>
		<path class="st1" d="M1036.7,143.4c-0.3,0-0.6-0.1-0.9-0.3c-0.2-0.2-0.4-0.5-0.4-0.9c0-0.3,0.1-0.6,0.4-0.9
			c0.2-0.2,0.5-0.3,0.9-0.3c0.3,0,0.5,0,0.8,0.1c0.3,0,0.5,0.1,0.8,0.1c0.2,0,0.4-0.1,0.4-0.3v-13.2c0-0.2-0.1-0.3-0.3-0.3
			c-0.3,0-0.6,0-0.8,0.1s-0.5,0-0.8,0.1c-0.3,0-0.6-0.1-0.9-0.3c-0.2-0.2-0.4-0.5-0.4-0.9c0-0.3,0.1-0.6,0.3-0.8
			c0.2-0.2,0.5-0.3,0.8-0.3l-0.1,0c0,0-0.1,0-0.1,0c0,0,0.1,0,0.1,0c0.4,0,0.9,0.1,1.5,0.1c0.5,0,0.9,0.1,1,0.1c0.5,0,1,0.2,1.3,0.5
			c0.4,0.4,0.5,0.8,0.5,1.3V141c0,0.2,0.1,0.3,0.4,0.3c0.3,0,0.6-0.1,0.8-0.1c0.3,0,0.5,0,0.8-0.1c0.3,0,0.6,0,0.8,0.3
			c0.2,0.2,0.3,0.5,0.3,0.9c0,0.4-0.1,0.6-0.3,0.9c-0.2,0.2-0.5,0.3-0.8,0.3c-0.5,0-1-0.1-1.5-0.1c-0.5,0-1.1-0.1-1.6-0.1
			c-0.5,0-1,0-1.6,0.1C1037.7,143.3,1037.2,143.4,1036.7,143.4z M1039.8,121.8c-0.5,0-1-0.2-1.3-0.6c-0.4-0.4-0.6-0.8-0.6-1.3
			c0-0.5,0.2-1,0.6-1.3c0.4-0.4,0.8-0.5,1.3-0.5c0.5,0,1,0.2,1.3,0.5c0.4,0.4,0.5,0.8,0.5,1.3c0,0.5-0.2,1-0.5,1.3
			C1040.8,121.6,1040.3,121.8,1039.8,121.8z"/>
		<path class="st1" d="M1048.7,143.4c-0.3,0-0.6-0.1-0.8-0.2s-0.3-0.4-0.3-0.7c0-0.3,0.1-0.6,0.3-0.8c0.2-0.2,0.5-0.3,0.8-0.2
			l1.6,0.1h0.1c0.2,0,0.2-0.1,0.2-0.3v-13.3c0-0.2-0.1-0.3-0.3-0.3h-2.2c-0.3,0-0.5-0.1-0.7-0.3c-0.2-0.2-0.3-0.4-0.3-0.7
			c0-0.3,0.1-0.5,0.3-0.7c0.2-0.2,0.4-0.3,0.7-0.3h2.2c0.2,0,0.3-0.1,0.3-0.3V123c0-1.6,0.5-3,1.4-4c0.9-1,2.1-1.6,3.5-1.6
			c1,0,1.8,0.2,2.4,0.5c0.6,0.3,1,0.7,1.2,1.1s0.4,0.8,0.4,1.2c0,0.5-0.2,0.9-0.5,1.3c-0.3,0.3-0.7,0.5-1.2,0.5
			c-0.6,0-1-0.2-1.3-0.6c-0.3-0.4-0.5-0.9-0.4-1.4v-0.1c0-0.1,0-0.2-0.1-0.3c-0.2-0.1-0.4-0.1-0.7-0.1c-0.7,0-1.3,0.3-1.9,1
			c-0.5,0.7-0.8,1.5-0.8,2.6v2.2c0,0.2,0.1,0.3,0.3,0.3h4c0.3,0,0.5,0.1,0.7,0.3c0.2,0.2,0.3,0.4,0.3,0.7s-0.1,0.5-0.3,0.7
			s-0.4,0.3-0.7,0.3h-4c-0.2,0-0.3,0.1-0.3,0.3v13.3c0,0.2,0.1,0.3,0.3,0.3l1.6-0.1c0.3,0,0.6,0,0.8,0.2c0.2,0.2,0.3,0.5,0.3,0.8
			c0,0.3-0.1,0.5-0.3,0.7c-0.2,0.2-0.5,0.3-0.8,0.2c-0.7-0.1-1.2-0.1-1.6-0.1c-0.3,0-0.6,0-0.8,0c-0.2,0-0.4,0-0.6,0
			c-0.3,0-0.5,0-0.7,0s-0.4,0-0.8,0.1C1049.8,143.3,1049.4,143.3,1048.7,143.4z"/>
		<path class="st1" d="M1070.4,143.4c-1.6,0-3.1-0.4-4.4-1.2s-2.4-1.9-3.2-3.3c-0.8-1.4-1.2-2.9-1.2-4.5c0-1.7,0.4-3.2,1.1-4.6
			c0.7-1.4,1.8-2.5,3-3.3c1.3-0.8,2.7-1.2,4.3-1.2c2.3,0,4.2,0.7,5.7,2.2c1.5,1.4,2.4,3.4,2.6,6c0,0.5-0.1,0.9-0.5,1.3
			c-0.3,0.4-0.8,0.6-1.3,0.6h-12.5c-0.3,0-0.4,0.1-0.3,0.4c0.2,1.1,0.6,2.1,1.2,2.9c0.6,0.9,1.4,1.5,2.3,2c0.9,0.5,1.9,0.7,3,0.7
			c0.9,0,1.7-0.2,2.6-0.6c0.8-0.4,1.6-0.9,2.2-1.6c0.3-0.3,0.6-0.5,1-0.5c0.2,0,0.4,0.1,0.6,0.2c0.3,0.2,0.5,0.5,0.5,0.8
			c0,0.3-0.1,0.5-0.2,0.6c-0.8,1-1.8,1.7-2.9,2.2S1071.7,143.4,1070.4,143.4z M1064.1,133.2h11.7c0.3,0,0.3-0.1,0.3-0.4
			c-0.3-1.8-0.9-3.2-2-4.2c-1-1-2.4-1.4-4.1-1.4c-1.7,0-3.1,0.5-4.2,1.5c-1.1,1-1.8,2.4-2.1,4.1v0.1
			C1063.8,133.1,1063.9,133.2,1064.1,133.2z"/>
	</g>
	<g class="st0">
		<path class="st1" d="M965.3,62.9c0.6-0.1,1.1,0.1,1.6,0.5c0.4,0.4,0.6,0.9,0.6,1.5c0,0.6-0.2,1.1-0.6,1.5
			c-0.4,0.4-0.9,0.6-1.4,0.6c-0.2,0-0.5,0-0.7,0s-0.6-0.1-0.8-0.1h-0.1c-0.2,0-0.3,0.1-0.4,0.3l-7.3,28.8c-0.2,0.6-0.5,1-0.9,1.3
			c-0.4,0.3-0.9,0.5-1.4,0.5c-0.6,0-1-0.2-1.5-0.5c-0.4-0.4-0.7-0.8-0.9-1.3l-6.3-24.2c0-0.2-0.1-0.3-0.3-0.3
			c-0.1,0-0.2,0.1-0.3,0.3l-6.2,24.2c-0.2,0.6-0.5,1-0.9,1.3c-0.4,0.3-0.9,0.5-1.5,0.5c-0.6,0-1.1-0.2-1.5-0.5
			c-0.4-0.3-0.7-0.8-0.9-1.3l-7.3-28.8c0-0.2-0.2-0.3-0.4-0.3c-0.3,0-0.6,0-0.9,0.1c-0.3,0-0.5,0.1-0.8,0.1c-0.6,0-1-0.2-1.4-0.6
			c-0.4-0.4-0.6-0.9-0.6-1.5c0-0.6,0.2-1.1,0.7-1.5c0.4-0.4,1-0.6,1.5-0.5c0.9,0.1,1.7,0.2,2.3,0.2c0.7,0,1.3,0.1,1.9,0.1
			c0.6,0,1.2,0,1.9-0.1c0.7,0,1.4-0.1,2.3-0.2c0.6-0.1,1.1,0.1,1.6,0.5c0.4,0.4,0.6,0.9,0.6,1.5c0,0.6-0.2,1.1-0.6,1.5
			c-0.4,0.4-1,0.6-1.6,0.6c-0.3-0.1-0.7-0.1-1.1-0.1s-0.7,0-1.1-0.1h-0.1c-0.2,0-0.3,0.1-0.3,0.4l5.4,21.7c0.1,0.2,0.2,0.3,0.3,0.3
			c0.1,0,0.2-0.1,0.2-0.3l6.2-23.6c0.2-0.6,0.5-1,0.9-1.4c0.5-0.4,1-0.5,1.5-0.5c0.6,0,1.1,0.2,1.5,0.5c0.5,0.4,0.8,0.8,0.9,1.4
			l6.2,23.6c0.1,0.2,0.2,0.3,0.3,0.3s0.2-0.1,0.2-0.3l5.4-21.8v-0.1c0-0.2-0.1-0.3-0.3-0.3c-0.4,0-0.7,0-1.1,0
			c-0.4,0-0.8,0.1-1.1,0.1c-0.6,0-1.1-0.2-1.5-0.6c-0.4-0.4-0.7-0.9-0.7-1.5c0-0.6,0.2-1.1,0.7-1.5c0.4-0.4,1-0.6,1.5-0.5
			c0.9,0.1,1.7,0.2,2.3,0.2c0.7,0,1.3,0.1,1.9,0.1c0.6,0,1.2,0,1.9-0.1C963.7,63.1,964.4,63,965.3,62.9z"/>
		<path class="st1" d="M998.6,87.8c0.6,0.5,0.8,1.1,0.8,1.8c0,0.5-0.1,0.9-0.4,1.2c-1.6,2.2-3.6,4-5.9,5.2c-2.4,1.2-4.9,1.8-7.5,1.8
			c-2.3,0-4.5-0.5-6.5-1.4c-2-0.9-3.8-2.2-5.3-3.8c-1.5-1.6-2.7-3.5-3.6-5.6s-1.3-4.4-1.3-6.8c0-2.4,0.4-4.7,1.3-6.8
			c0.9-2.1,2.1-4,3.6-5.6c1.5-1.6,3.3-2.8,5.3-3.7c2-0.9,4.2-1.4,6.5-1.4c4.4,0,8,1.4,11,4.3c1.7,1.5,2.5,3,2.5,4.4
			c0,0.9-0.3,1.6-0.9,2.3c-0.6,0.6-1.3,0.9-2.2,0.9c-0.9,0-1.7-0.3-2.3-1c-0.6-0.6-0.9-1.4-0.9-2.2c0-0.6,0.1-1.1,0.4-1.5
			c0.2-0.2,0.1-0.4,0-0.6c-1.8-1.8-4.3-2.7-7.6-2.7c-2.4,0-4.5,0.6-6.4,1.8c-1.9,1.2-3.4,2.8-4.5,4.8s-1.7,4.3-1.7,6.9
			c0,2.5,0.6,4.8,1.7,6.8s2.6,3.6,4.5,4.8c1.9,1.2,4,1.7,6.4,1.7c2.1,0,4.1-0.5,5.9-1.4c1.8-1,3.3-2.3,4.4-4
			c0.4-0.6,0.9-0.9,1.6-0.9C997.9,87.4,998.2,87.5,998.6,87.8z"/>
		<path class="st1" d="M1024.4,79c-0.3,0.2-0.3,0.3,0,0.6c1.7,0.9,3,2,3.9,3.4c0.9,1.4,1.4,3,1.4,4.8c0,1.7-0.3,3.1-1,4.3
			c-0.7,1.2-1.5,2.2-2.6,3c-1.1,0.8-2.3,1.4-3.6,1.8s-2.6,0.6-3.9,0.6h-8.6c-0.6,0-1.2,0-1.9,0.1c-0.6,0.1-1.3,0.2-1.9,0.2
			c-0.6,0.1-1.2-0.1-1.7-0.5c-0.5-0.4-0.7-1-0.7-1.7c0-0.6,0.2-1.2,0.7-1.6c0.5-0.4,1-0.6,1.7-0.5c0.2,0,0.5,0.1,0.8,0.1
			c0.3,0,0.6,0.1,0.8,0.1h0.1c0.2,0,0.4-0.1,0.4-0.4v-26c0-0.3-0.2-0.4-0.5-0.4c-0.2,0-0.4,0.1-0.6,0.1s-0.4,0.1-0.7,0.1
			c-0.6,0.1-1.2-0.1-1.7-0.5c-0.5-0.4-0.7-1-0.7-1.6c0-0.7,0.2-1.2,0.7-1.7c0.5-0.4,1-0.6,1.7-0.5c0.5,0.1,0.9,0.1,1.4,0.2
			s1,0.1,1.4,0.1l8,0c2,0,3.7,0.3,5.1,0.9c1.4,0.6,2.5,1.3,3.4,2.2s1.5,1.9,1.9,2.9c0.4,1,0.6,2,0.6,2.9
			C1028.3,75.1,1027,77.3,1024.4,79z M1024.2,72.2c0-1.5-0.6-2.7-1.9-3.6c-1.2-0.9-2.9-1.3-5.1-1.3h-4.5c-0.3,0-0.4,0.1-0.4,0.4v9.6
			c0,0.3,0.1,0.4,0.4,0.4h3.7c2.7-0.2,4.6-0.7,5.9-1.6C1023.6,75.3,1024.2,74,1024.2,72.2z M1012.8,81.7c-0.3,0-0.4,0.1-0.4,0.4V93
			c0,0.3,0.1,0.4,0.4,0.4h5.7c2.3,0,4-0.5,5.3-1.5c1.2-1,1.9-2.4,1.9-4.2c0-4-3.2-6-9.7-6H1012.8z"/>
	</g>
	<g id="Leaf" transform="translate(868.314 48.244)">
		<path id="Intersection_3" class="st2" d="M21.8,20.7c0.8-3.3,0.2-6.2-1.4-7.4c-2.1,0.9-4.1,3.6-4.9,6.9c-0.8,3.3-0.2,6.2,1.4,7.4
			C19,26.6,21,23.9,21.8,20.7z"/>
		<path id="Intersection_6" class="st2" d="M30.1,32.6c1.2-4,0.8-7.8-0.8-9.7c-2.3,0.8-4.6,3.8-5.8,7.8s-0.8,7.8,0.8,9.7
			C26.6,39.6,28.9,36.6,30.1,32.6z"/>
		<path id="Intersection_8" class="st3" d="M41.4,39.4c-0.3,4.7-2.2,8.7-4.6,10.1c-2.1-1.7-3.5-5.9-3.1-10.6s2.2-8.7,4.6-10.1
			C40.4,30.6,41.7,34.7,41.4,39.4z"/>
		<path id="Intersection_5" class="st4" d="M16.3,42.8c-4.2,0.1-7.8-1.3-9.2-3.3c1.3-2,4.9-3.5,9.1-3.6s7.8,1.3,9.2,3.3
			C24,41.3,20.4,42.7,16.3,42.8z"/>
		<path id="Intersection_7" class="st2" d="M27.7,55.4c-4.6,1.1-8.9,0.4-11-1.4c1-2.6,4.6-5,9.2-6.1s8.9-0.4,11,1.4
			C35.9,51.8,32.3,54.3,27.7,55.4z"/>
		<path id="Intersection_10" class="st3" d="M6.1,27.7c-3-1.5-4.9-3.8-4.8-5.8c2.1-1,5.4-0.8,8.4,0.7s4.9,3.8,4.8,5.8
			C12.5,29.4,9.1,29.2,6.1,27.7z"/>
		<path id="Path_4" class="st5" d="M47.5,53c0,0-28.1-6.2-36.1-36.1"/>
		<path id="Intersection_9" class="st4" d="M13.5,10.1C12.4,5.5,10,1.9,7.4,0.9c-1.8,2-2.5,6.3-1.4,11S9.5,20,12.1,21
			C13.9,19,14.6,14.7,13.5,10.1z"/>
	</g>
	<g id="Leaf-2" transform="translate(1038.667 49.713)">
		<path id="Intersection_3-2" class="st2" d="M25.7,20.7c-0.8-3.3-0.2-6.2,1.4-7.4c2.1,0.9,4.1,3.6,4.9,6.9s0.2,6.2-1.4,7.4
			C28.5,26.6,26.5,23.9,25.7,20.7z"/>
		<path id="Intersection_6-2" class="st2" d="M17.4,32.6c-1.2-4-0.8-7.8,0.8-9.7c2.3,0.8,4.6,3.8,5.8,7.8s0.8,7.8-0.8,9.7
			C20.9,39.6,18.6,36.6,17.4,32.6z"/>
		<path id="Intersection_8-2" class="st3" d="M6.1,39.5c0.3,4.7,2.2,8.7,4.6,10.1c2.1-1.7,3.5-5.9,3.1-10.6
			c-0.3-4.7-2.2-8.7-4.6-10.1C7.1,30.6,5.8,34.7,6.1,39.5z"/>
		<path id="Intersection_5-2" class="st4" d="M31.2,42.8c4.2,0.1,7.8-1.3,9.2-3.3c-1.3-2-4.9-3.5-9.1-3.6s-7.8,1.3-9.2,3.3
			C23.5,41.3,27.1,42.7,31.2,42.8z"/>
		<path id="Intersection_7-2" class="st2" d="M19.8,55.4c4.6,1.1,8.9,0.4,11-1.4c-1-2.6-4.6-5-9.2-6.1c-4.6-1.1-8.9-0.4-11,1.4
			C11.6,51.8,15.2,54.3,19.8,55.4z"/>
		<path id="Intersection_10-2" class="st3" d="M41.4,27.7c3-1.5,4.9-3.8,4.8-5.8c-2.1-1-5.4-0.8-8.4,0.7c-3,1.5-4.9,3.8-4.8,5.8
			C35,29.4,38.4,29.2,41.4,27.7z"/>
		<path id="Path_4-2" class="st5" d="M0,53c0,0,28.1-6.2,36.1-36.1"/>
		<path id="Intersection_9-2" class="st4" d="M34,10.1c1.1-4.6,3.5-8.2,6.1-9.2c1.8,2,2.5,6.3,1.4,11C40.4,16.4,38,20,35.4,21
			C33.6,19,32.9,14.7,34,10.1z"/>
	</g>
</g>
</svg>
